<svg width="70" height="70" viewBox="0 0 70 70" fill="none" xmlns="http://www.w3.org/2000/svg">
<g id="card__icon">
<g id="people">
<path id="Vector" d="M48.7634 57.61L46.8968 42.665C46.6322 40.5482 45.6035 38.6009 44.0039 37.1893C42.4044 35.7778 40.3442 34.9992 38.2109 35H31.7826C29.6503 35.0006 27.5916 35.7798 25.9933 37.1912C24.3949 38.6027 23.367 40.5491 23.1026 42.665L21.233 57.61C21.1304 58.4311 21.2037 59.2646 21.4479 60.0552C21.6921 60.8458 22.1018 61.5754 22.6497 62.1955C23.1975 62.8156 23.871 63.3121 24.6255 63.652C25.3799 63.9918 26.198 64.1673 27.0255 64.1667H42.9738C43.8011 64.1669 44.6189 63.9911 45.373 63.6511C46.1271 63.311 46.8002 62.8145 47.3478 62.1944C47.8953 61.5743 48.3047 60.8449 48.5487 60.0545C48.7928 59.2641 48.866 58.4308 48.7634 57.61V57.61Z" stroke="#E1F5E4" stroke-width="2" stroke-linecap="round" stroke-linejoin="round"/>
<path id="Vector_2" d="M35 23.3333C39.8325 23.3333 43.75 19.4158 43.75 14.5833C43.75 9.75084 39.8325 5.83333 35 5.83333C30.1675 5.83333 26.25 9.75084 26.25 14.5833C26.25 19.4158 30.1675 23.3333 35 23.3333Z" stroke="#E1F5E4" stroke-width="2"/>
<path id="Vector_3" d="M11.6663 32.0833C14.888 32.0833 17.4997 29.4717 17.4997 26.25C17.4997 23.0283 14.888 20.4167 11.6663 20.4167C8.44468 20.4167 5.83301 23.0283 5.83301 26.25C5.83301 29.4717 8.44468 32.0833 11.6663 32.0833Z" stroke="#E1F5E4" stroke-width="2"/>
<path id="Vector_4" d="M58.3333 32.0833C61.555 32.0833 64.1667 29.4717 64.1667 26.25C64.1667 23.0283 61.555 20.4167 58.3333 20.4167C55.1117 20.4167 52.5 23.0283 52.5 26.25C52.5 29.4717 55.1117 32.0833 58.3333 32.0833Z" stroke="#E1F5E4" stroke-width="2"/>
<path id="Vector_5" d="M58.3332 40.8333H59.2257C60.6066 40.8332 61.9427 41.3229 62.9965 42.2153C64.0502 43.1077 64.7531 44.345 64.9803 45.7071L65.9516 51.5404C66.0909 52.3762 66.0466 53.2323 65.8216 54.0491C65.5965 54.866 65.1963 55.6241 64.6486 56.2706C64.1009 56.9171 63.419 57.4365 62.6502 57.7927C61.8814 58.149 61.0443 58.3334 60.197 58.3333H49.5832M11.6666 40.8333H10.7741C9.39319 40.8332 8.05704 41.3229 7.00331 42.2153C5.94959 43.1077 5.24662 44.345 5.01947 45.7071L4.04822 51.5404C3.90884 52.3762 3.9532 53.2323 4.17821 54.0491C4.40322 54.866 4.80349 55.6241 5.35117 56.2706C5.89885 56.9171 6.5808 57.4365 7.34957 57.7927C8.11835 58.149 8.9555 58.3334 9.8028 58.3333H20.4166L11.6666 40.8333Z" stroke="#E1F5E4" stroke-width="2" stroke-linecap="round" stroke-linejoin="round"/>
</g>
</g>
</svg>
