<svg width="70" height="70" viewBox="0 0 70 70" fill="none" xmlns="http://www.w3.org/2000/svg">
<path d="M14 14C14 12.7713 14.3235 11.5642 14.9379 10.5001C15.5522 9.436 16.4359 8.55236 17.5 7.938V56C17.5 56.9283 17.8687 57.8185 18.5251 58.4749C19.1815 59.1313 20.0717 59.5 21 59.5H49C49.9283 59.5 50.8185 59.1313 51.4749 58.4749C52.1312 57.8185 52.5 56.9283 52.5 56V14C52.5 13.0717 52.1312 12.1815 51.4749 11.5251C50.8185 10.8687 49.9283 10.5 49 10.5H42V7H49C50.8565 7 52.637 7.7375 53.9497 9.05025C55.2625 10.363 56 12.1435 56 14V56C56 57.8565 55.2625 59.637 53.9497 60.9497C52.637 62.2625 50.8565 63 49 63H21C19.1435 63 17.363 62.2625 16.0503 60.9497C14.7375 59.637 14 57.8565 14 56V14ZM21 7V29.75C21 30.075 21.0905 30.3936 21.2614 30.67C21.4322 30.9465 21.6767 31.1699 21.9674 31.3152C22.2581 31.4606 22.5835 31.5221 22.9072 31.4929C23.2308 31.4637 23.54 31.345 23.8 31.15L29.75 26.6875L35.7 31.15C35.96 31.345 36.2692 31.4637 36.5928 31.4929C36.9165 31.5221 37.2419 31.4606 37.5326 31.3152C37.8233 31.1699 38.0678 30.9465 38.2386 30.67C38.4095 30.3936 38.5 30.075 38.5 29.75V7H21ZM24.5 26.25V10.5H35V26.25L30.8 23.1C30.4971 22.8728 30.1286 22.75 29.75 22.75C29.3714 22.75 29.0029 22.8728 28.7 23.1L24.5 26.25Z" fill="#364D39"/>
</svg>
