<svg width="20" height="26" viewBox="0 0 20 26" fill="none" xmlns="http://www.w3.org/2000/svg">
<path d="M10.7277 4.25374L8.93298 4.24999C4.83917 4.23999 1.28524 7.63624 1.25708 11.75V16.4875C1.25708 17.475 1.13466 18.4387 0.607014 19.26L0.255661 19.8075C-0.279326 20.6375 0.296061 21.75 1.25708 21.75H18.433C19.394 21.75 19.9682 20.6375 19.4344 19.8075L19.083 19.26C18.5566 18.4387 18.433 17.4737 18.433 16.4862V11.7512C18.384 7.63624 14.8215 4.26374 10.7277 4.25374V4.25374ZM13.5177 21.75C13.5177 22.7446 13.1308 23.6984 12.442 24.4016C11.7532 25.1049 10.8191 25.5 9.84503 25.5C8.87097 25.5 7.93681 25.1049 7.24805 24.4016C6.55929 23.6984 6.17235 22.7446 6.17235 21.75" fill="#284CCD"/>
<path d="M9.84494 0.5C10.4943 0.5 11.1171 0.851189 11.5763 1.47631C12.0354 2.10143 12.2934 2.94928 12.2934 3.83333V5.5H7.39648V3.83333C7.39648 2.94928 7.65445 2.10143 8.11362 1.47631C8.57279 0.851189 9.19557 0.5 9.84494 0.5Z" fill="#284CCD"/>
</svg>
