<svg width="70" height="70" viewBox="0 0 70 70" fill="none" xmlns="http://www.w3.org/2000/svg">
<path d="M30.7824 18.2L20.9153 6.81042C19.7778 5.49792 17.6924 5.50375 16.3711 6.82792L8.25695 14.9567C5.84195 17.3746 5.1507 20.965 6.54778 23.8438C14.8942 41.1249 28.8312 55.0815 46.1007 63.4521C48.9765 64.8492 52.564 64.1579 54.979 61.74L63.169 53.5354C64.4961 52.2083 64.499 50.1112 63.1749 48.9737L51.7415 39.1592C50.5457 38.1325 48.6878 38.2667 47.489 39.4683L43.5107 43.4525C43.307 43.666 43.0389 43.8067 42.7476 43.853C42.4562 43.8994 42.1576 43.8489 41.8978 43.7092C35.3949 39.9644 30.0007 34.5632 26.2644 28.0554C26.1245 27.7951 26.0739 27.4961 26.1202 27.2042C26.1666 26.9123 26.3074 26.6437 26.5211 26.4396L30.4878 22.47C31.6894 21.2625 31.8207 19.3958 30.7824 18.1971V18.2Z" stroke="#5B5B5B" stroke-width="2" stroke-linecap="round" stroke-linejoin="round"/>
</svg>
