<svg width="70" height="70" viewBox="0 0 70 70" fill="none" xmlns="http://www.w3.org/2000/svg">
<g clip-path="url(#clip0_171_79)">
<path d="M26.25 3.28125C26.25 1.46973 27.7129 0 29.5312 0H40.4688C42.2871 0 43.75 1.46973 43.75 3.28125C43.75 5.09277 42.2871 6.5625 40.4688 6.5625H38.2812V11.159C42.4785 11.7305 46.3203 13.382 49.5332 15.8184L52.7871 12.5713L51.2422 11.025C49.957 9.74258 49.957 7.66582 51.2422 6.38477C52.5273 5.10234 54.6055 5.10234 55.877 6.38477L63.6152 14.123C64.9004 15.3945 64.9004 17.4727 63.6152 18.7578C62.3301 20.043 60.252 20.043 58.9805 18.7578L57.4219 17.2129L54.1816 20.4668C56.6152 23.6797 58.2695 27.5215 58.8438 31.7188H63.4375V29.5312C63.4375 27.7129 64.9004 26.25 66.7188 26.25C68.5371 26.25 70 27.7129 70 29.5312V40.4688C70 42.2871 68.5371 43.75 66.7188 43.75C64.9004 43.75 63.4375 42.2871 63.4375 40.4688V38.2812H58.8438C58.2695 42.4785 56.6152 46.3203 54.1816 49.5332L57.4219 52.7871L58.9805 51.2422C60.252 49.957 62.3301 49.957 63.6152 51.2422C64.9004 52.5273 64.9004 54.6055 63.6152 55.877L55.877 63.6152C54.6055 64.9004 52.5273 64.9004 51.2422 63.6152C49.957 62.3301 49.957 60.252 51.2422 58.9805L52.7871 57.4219L49.5332 54.1816C46.3203 56.6152 42.4785 58.2695 38.2812 58.8438V63.4375H40.4688C42.2871 63.4375 43.75 64.9004 43.75 66.7188C43.75 68.5371 42.2871 70 40.4688 70H29.5312C27.7129 70 26.25 68.5371 26.25 66.7188C26.25 64.9004 27.7129 63.4375 29.5312 63.4375H31.7188V58.8438C27.5215 58.2695 23.6797 56.6152 20.4668 54.1816L17.2129 57.4355L18.7578 58.9805C20.043 60.252 20.043 62.3301 18.7578 63.6152C17.4727 64.9004 15.3945 64.9004 14.123 63.6152L6.38477 55.877C5.10234 54.6055 5.10234 52.5273 6.38477 51.2422C7.66582 49.957 9.74395 49.957 11.025 51.2422L12.5713 52.7871L15.8184 49.5332C13.382 46.3203 11.7305 42.4785 11.159 38.2812H6.5625V40.4688C6.5625 42.2871 5.09277 43.75 3.28125 43.75C1.46973 43.75 0 42.2871 0 40.4688V29.5312C0 27.7129 1.46973 26.25 3.28125 26.25C5.09277 26.25 6.5625 27.7129 6.5625 29.5312V31.7188H11.159C11.7305 27.5215 13.382 23.6797 15.8184 20.4668L12.5713 17.2129L11.025 18.7578C9.74258 20.043 7.66582 20.043 6.38477 18.7578C5.10234 17.4727 5.10234 15.3945 6.38477 14.123L14.123 6.38477C15.3945 5.10371 17.4727 5.10371 18.7578 6.38477C20.043 7.66582 20.043 9.74395 18.7578 11.025L17.2129 12.5713L20.4668 15.8184C23.6797 13.382 27.5215 11.7305 31.7188 11.159V6.5625H29.5312C27.7129 6.5625 26.25 5.09414 26.25 3.28125ZM26.25 24.0625C22.627 24.0625 19.6875 27.002 19.6875 30.625C19.6875 34.248 22.627 37.1875 26.25 37.1875C29.873 37.1875 32.8125 34.248 32.8125 30.625C32.8125 27.002 29.873 24.0625 26.25 24.0625ZM41.5625 44.8438C43.3809 44.8438 44.8438 43.3809 44.8438 41.5625C44.8438 39.7441 43.3809 38.2812 41.5625 38.2812C39.7441 38.2812 38.2812 39.7441 38.2812 41.5625C38.2812 43.3809 39.7441 44.8438 41.5625 44.8438Z" fill="#CD3228"/>
</g>
<defs>
<clipPath id="clip0_171_79">
<rect width="70" height="70" fill="white"/>
</clipPath>
</defs>
</svg>
